<svg class="svg-icon" style="width: 1em; height: 1em;vertical-align: middle;fill: currentColor;overflow: hidden;" viewBox="0 0 1024 1024" version="1.1" xmlns="http://www.w3.org/2000/svg"><path d="M169.1 434l296.6 188.6c14.7 9.4 31.6 14.3 49 14.3s34.4-4.9 49-14.2L860.3 434c18.8-11.9 30-32.4 30-54.6s-11.2-42.7-30-54.6L563.7 136.1c-29.3-18.7-68.7-18.6-98 0L169.1 324.8c-18.8 11.9-30 32.3-30 54.6 0 22.2 11.2 42.7 30 54.6z m18.6-80l296.6-188.6c9.1-5.8 19.6-8.9 30.4-8.9s21.3 3 30.4 8.8L841.7 354c8.8 5.6 13.9 14.9 13.9 25.4s-5 19.8-13.9 25.4L545.1 593.5c-18.2 11.6-42.6 11.6-60.8 0L187.7 404.8c-8.8-5.7-13.9-14.9-13.9-25.4s5-19.8 13.9-25.4z"  /><path d="M858.3 521.2L544.5 724.1c-20.7 13.4-46.6 13.4-67.3 0.1l-311-202.9c-8-5.3-18.7-3-24 5-5.3 8-3 18.8 5 24l311.1 203c16.2 10.4 34.4 15.6 52.5 15.6s36.3-5.2 52.5-15.6l313.8-203.1c8-5.1 10.3-15.9 5.1-23.9-5.1-8-15.9-10.3-23.9-5.1z"  /><path d="M858.3 648.6L544.5 851.5c-20.8 13.4-46.7 13.4-67.4 0.1l-311-202.9c-8-5.3-18.7-3-24 5-5.2 8-2.9 18.8 5.1 24l311.1 203c16.2 10.4 34.4 15.6 52.5 15.6s36.3-5.2 52.5-15.7l313.8-203c8-5.1 10.3-15.9 5.1-23.9-5.1-8-15.9-10.3-23.9-5.1z"  /></svg>